#!OML:ASF H:\MichaelJackson\Top Level 1\Subject 1\Session 1\male.ASF
:FULLY-SPECIFIED
:DEGREES
585
root -11.6847 16.7393 16.8623 -177.112 -13.3458 -177.707
lowerback 0.576443 -3.84425 -4.46715
upperback 1.01987 -5.14714 0.8636
thorax 1.19943 -2.62647 3.33509
lowerneck -7.45853 -10.3739 -4.61496
upperneck 17.4405 -16.0267 7.02568
head 7.53227 -7.77428 1.47324
rclavicle 3.86636e-014 -2.0276e-014
rhumerus -66.2377 -0.632718 -87.8918
rradius 62.3725
rwrist 2.00887
rhand -23.1988 -21.4251
rfingers 7.12502
rthumb 3.25109 -411.38
lclavicle 3.86636e-014 -2.0276e-014
lhumerus -31.1084 -44.6301 113.596
lradius 55.219
lwrist 8.0496
lhand 5.38336 15.3034
lfingers 7.12502
lthumb 30.7356 42.755
rfemur -20.7873 11.9385 6.77947
rtibia 60.1494
rfoot 12.497 34.084
rtoes 21.9941
lfemur -23.7787 -11.1024 -6.92295
ltibia 36.4183
lfoot -21.3855 -33.7169
ltoes 21.4432
586
root -11.6005 16.7262 16.9024 -177.369 -14.7582 -177.633
lowerback 0.302576 -3.62422 -4.3918
upperback 1.04699 -4.83911 0.77748
thorax 1.3384 -2.47416 3.19117
lowerneck -7.57289 -10.206 -4.49784
upperneck 17.6851 -15.8331 7.05183
head 7.61349 -7.66426 1.47271
rclavicle 8.15017e-015 0
rhumerus -66.3034 0.29793 -88.6601
rradius 61.8469
rwrist 2.83013
rhand -21.5901 -19.7436
rfingers 7.12502
rthumb 4.80456 -409.669
lclavicle 8.15017e-015 0
lhumerus -30.7712 -44.2082 113.035
lradius 55.4963
lwrist 8.21363
lhand 5.10099 15.1319
lfingers 7.12502
lthumb 30.4663 42.6337
rfemur -19.7748 12.5174 7.50393
rtibia 59.6844
rfoot 12.949 34.5739
rtoes 23.5968
lfemur -24.2258 -11.8142 -6.53023
ltibia 36.3847
lfoot -20.8571 -34.4365
ltoes 21.4769
587
root -11.5145 16.7118 16.9445 -177.651 -16.0965 -177.531
lowerback 0.0628098 -3.39074 -4.31208
upperback 1.08148 -4.51522 0.696401
thorax 1.46639 -2.31383 3.05438
lowerneck -7.71307 -10.0131 -4.37059
upperneck 17.9426 -15.6035 7.06667
head 7.69984 -7.5357 1.46975
rclavicle -7.36e-014 -4.37326e-015
rhumerus -66.3516 1.36851 -89.482
rradius 61.4428
rwrist 3.5141
rhand -19.8564 -18.3374
rfingers 7.12502
rthumb 6.47845 -408.218
lclavicle -7.36e-014 -4.37326e-015
lhumerus -30.4654 -43.7504 112.458
lradius 55.8023
lwrist 8.39339
lhand 4.72959 14.9227
lfingers 7.12502
lthumb 30.112 42.4896
rfemur -18.7946 13.1182 8.31162
rtibia 59.1631
rfoot 13.3261 34.864
rtoes 25.772
lfemur -24.6825 -12.4619 -6.12206
ltibia 36.3886
lfoot -20.2806 -35.1463
ltoes 21.5655
588
root -11.4265 16.6966 16.9885 -177.951 -17.3709 -177.411
lowerback -0.147283 -3.15198 -4.23342
upperback 1.11944 -4.18606 0.617611
thorax 1.58306 -2.15071 2.92417
lowerneck -7.84492 -9.79422 -4.22186
upperneck 18.198 -15.3369 7.06284
head 7.77897 -7.38992 1.46295
rclavicle 6.19214e-014 3.18055e-015
rhumerus -66.3846 2.58951 -90.354
rradius 61.1479
rwrist 4.06744
rhand -18.0161 -17.1955
rfingers 7.12502
rthumb 8.25475 -407.014
lclavicle 6.19214e-014 3.18055e-015
lhumerus -30.1943 -43.234 111.863
lradius 56.1357
lwrist 8.55255
lhand 4.34782 14.6879
lfingers 7.12502
lthumb 29.7477 42.3206
rfemur -17.852 13.7189 9.18038
rtibia 58.5941
rfoot 13.701 34.885
rtoes 28.5398
lfemur -25.1499 -13.0618 -5.70895
ltibia 36.4177
lfoot -19.6576 -35.8372
ltoes 21.7045
589
root -11.3367 16.6807 17.0343 -178.261 -18.5917 -177.281
lowerback -0.325081 -2.9093 -4.15434
upperback 1.15261 -3.85346 0.535086
thorax 1.67798 -1.98527 2.79356
lowerneck -7.97806 -9.55608 -4.04789
upperneck 18.4624 -15.0463 7.04408
head 7.85736 -7.23234 1.45044
rclavicle -1.88845e-014 -7.95139e-016
rhumerus -66.4144 3.94419 -91.2576
rradius 60.9499
rwrist 4.51852
rhand -16.059 -16.2541
rfingers 7.12502
rthumb 10.1432 -405.99
lclavicle -1.88845e-014 -7.95139e-016
lhumerus -29.9809 -42.6704 111.264
lradius 56.4904
lwrist 8.66091
lhand 3.92171 14.3889
lfingers 7.12502
lthumb 29.341 42.0935
rfemur -16.951 14.2992 10.0875
rtibia 57.99
rfoot 14.0419 34.6294
rtoes 31.7809
lfemur -25.627 -13.6288 -5.29796
ltibia 36.4542
lfoot -18.9825 -36.503
ltoes 21.8885
590
root -11.2448 16.6642 17.0818 -178.577 -19.7712 -177.147
lowerback -0.472702 -2.66763 -4.07678
upperback 1.18091 -3.52386 0.448718
thorax 1.75295 -1.82084 2.66273
lowerneck -8.1069 -9.30087 -3.84343
upperneck 18.732 -14.7334 7.00329
head 7.93207 -7.06425 1.42931
rclavicle 2.08227e-014 1.90833e-014
rhumerus -66.4425 5.42565 -92.1749
rradius 60.8296
rwrist 4.92993
rhand -14.0059 -15.5005
rfingers 7.12502
rthumb 12.1235 -405.129
lclavicle 2.08227e-014 1.90833e-014
lhumerus -29.8317 -42.0581 110.664
lradius 56.8718
lwrist 8.7027
lhand 3.46447 14.0708
lfingers 7.12502
lthumb 28.9043 41.851
rfemur -16.0921 14.8381 11.017
rtibia 57.3675
rfoot 14.294 34.1461
rtoes 35.1475
lfemur -26.111 -14.1597 -4.89133
ltibia 36.4801
lfoot -18.2563 -37.1622
ltoes 22.1404
591
root -11.1508 16.6482 17.1311 -178.896 -20.9075 -177.008
lowerback -0.587208 -2.42409 -3.99229
upperback 1.20076 -3.19357 0.354589
thorax 1.80168 -1.65527 2.52286
lowerneck -8.22721 -9.03315 -3.59746
upperneck 19.0009 -14.4044 6.93529
head 7.99992 -6.8885 1.39576
rclavicle -5.1684e-014 6.36111e-015
rhumerus -66.478 7.01597 -93.0944
rradius 60.764
rwrist 5.36912
rhand -11.9368 -14.8512
rfingers 7.12502
rthumb 14.1179 -404.352
lclavicle -5.1684e-014 6.36111e-015
lhumerus -29.7564 -41.4055 110.066
lradius 57.2795
lwrist 8.70163
lhand 3.00324 13.7656
lfingers 7.12502
lthumb 28.4637 41.6203
rfemur -15.285 15.3454 11.9493
rtibia 56.7471
rfoot 14.4045 33.4819
rtoes 38.4417
lfemur -26.5897 -14.6521 -4.48917
ltibia 36.4765
lfoot -17.4745 -37.8138
ltoes 22.4386
592
root -11.0547 16.6328 17.1823 -179.214 -22.0046 -176.866
lowerback -0.67573 -2.17896 -3.90177
upperback 1.21742 -2.86268 0.258228
thorax 1.83413 -1.48899 2.37916
lowerneck -8.3428 -8.75683 -3.33526
upperneck 19.2634 -14.0634 6.85798
head 8.06355 -6.70675 1.3585
rclavicle -2.68359e-014 -2.06736e-014
rhumerus -66.5206 8.72125 -94.0076
rradius 60.7372
rwrist 5.88054
rhand -9.97913 -14.2747
rfingers 7.12502
rthumb 16.0037 -403.634
lclavicle -2.68359e-014 -2.06736e-014
lhumerus -29.7339 -40.7361 109.466
lradius 57.7031
lwrist 8.68848
lhand 2.5206 13.4588
lfingers 7.12502
lthumb 28.0024 41.3898
rfemur -14.5275 15.8099 12.8729
rtibia 56.1474
rfoot 14.2093 32.7443
rtoes 41.2883
lfemur -27.0584 -15.0992 -4.08861
ltibia 36.4255
lfoot -16.6586 -38.4567
ltoes 22.7024
593
root -10.9561 16.6181 17.2359 -179.532 -23.0554 -176.724
lowerback -0.729279 -1.92926 -3.80883
upperback 1.23002 -2.52755 0.160521
thorax 1.84448 -1.32017 2.23463
lowerneck -8.46068 -8.47606 -3.07746
upperneck 19.5222 -13.7164 6.7857
head 8.12813 -6.52158 1.32403
rclavicle -2.44505e-014 9.54166e-015
rhumerus -66.5811 10.5371 -94.9087
rradius 60.7382
rwrist 6.48927
rhand -8.19904 -13.761
rfingers 7.12502
rthumb 17.7173 -402.974
lclavicle -2.44505e-014 9.54166e-015
lhumerus -29.7594 -40.0441 108.863
lradius 58.1447
lwrist 8.67453
lhand 2.01494 13.1771
lfingers 7.12502
lthumb 27.5189 41.186
rfemur -13.8142 16.2071 13.7793
rtibia 55.5835
rfoot 13.5299 32.049
rtoes 43.3637
lfemur -27.5037 -15.4976 -3.69252
ltibia 36.3117
lfoot -15.8187 -39.0828
ltoes 22.9008
594
root -10.8549 16.6048 17.2921 -179.844 -24.0527 -176.583
lowerback -0.757171 -1.67478 -3.72049
upperback 1.23874 -2.1874 0.0660143
thorax 1.83865 -1.14866 2.09709
lowerneck -8.57418 -8.19441 -2.8192
upperneck 19.7699 -13.3649 6.70627
head 8.18881 -6.33465 1.2881
rclavicle 5.81445e-015 -1.11319e-014
rhumerus -66.6735 12.481 -95.808
rradius 60.7586
rwrist 7.203
rhand -6.71828 -13.3249
rfingers 7.12502
rthumb 19.1418 -402.403
lclavicle 5.81445e-015 -1.11319e-014
lhumerus -29.824 -39.3362 108.253
lradius 58.603
lwrist 8.68393
lhand 1.46528 12.9342
lfingers 7.12502
lthumb 26.9931 41.0257
rfemur -13.151 16.5199 14.6563
rtibia 55.0631
rfoot 12.3373 31.4331
rtoes 44.6798
lfemur -27.92 -15.8439 -3.30131
ltibia 36.1242
lfoot -14.9912 -39.6697
ltoes 22.9564
595
root -10.7511 16.5934 17.3513 -180.147 -24.9896 -176.444
lowerback -0.766171 -1.40856 -3.63154
upperback 1.24627 -1.83262 -0.0264154
thorax 1.82231 -0.969734 1.9621
lowerneck -8.66715 -7.91433 -2.58709
upperneck 19.9902 -13.0145 6.65453
head 8.24181 -6.14837 1.26643
rclavicle -1.06847e-014 -6.36111e-015
rhumerus -66.808 14.5296 -96.7042
rradius 60.7905
rwrist 7.99728
rhand -5.59582 -12.9896
rfingers 7.12502
rthumb 20.2209 -401.957
lclavicle -1.06847e-014 -6.36111e-015
lhumerus -29.9155 -38.6312 107.638
lradius 59.0652
lwrist 8.72905
lhand 0.846117 12.6503
lfingers 7.12502
lthumb 26.4006 40.8321
rfemur -12.5368 16.7137 15.4971
rtibia 54.584
rfoot 10.6165 30.9125
rtoes 45.2198
lfemur -28.3002 -16.1457 -2.91511
ltibia 35.8566
lfoot -14.2122 -40.1895
ltoes 22.8096
